<?xml version="1.0" encoding="utf-8"?>
<!-- Generator: Adobe Illustrator 19.0.0, SVG Export Plug-In . SVG Version: 6.00 Build 0)  -->
<svg version="1.1" id="Layer_1" xmlns="http://www.w3.org/2000/svg" xmlns:xlink="http://www.w3.org/1999/xlink" x="0px" y="0px"
	 viewBox="-280.3 383.1 247.2 29.9" style="enable-background:new -280.3 383.1 247.2 29.9;" xml:space="preserve">
<style type="text/css">
	.st0{fill:#9E1A36;}
</style>
<g id="Outline_Color_copy_2">
	<path class="st0" d="M-130.5,383.9c1.6,0,2.8,1.3,2.8,2.8v22.5c0,1.6-1.3,2.8-2.8,2.8H-153c-1.6,0-2.8-1.3-2.8-2.8v-22.5
		c0-1.6,1.3-2.8,2.8-2.8H-130.5 M-130.5,383H-153c-2.1,0-3.7,1.7-3.7,3.7v22.5c0,2.1,1.7,3.7,3.7,3.7h22.5c2.1,0,3.7-1.7,3.7-3.7
		v-22.5C-126.8,384.7-128.5,383-130.5,383L-130.5,383z"/>
</g>
<g>
	<g>
		<path class="st0" d="M-143.2,390.8c-0.2-0.5-0.4-1.2-0.8-1.5c-0.3-0.2-0.7,0-0.8,0.2c-0.3,0.6,0,1.6,0.2,2.2c0.4,1.4,1,3,1.5,4.3
			c0.3-0.3,1.1-0.2,1.7-0.1C-142,394.3-142.6,392.5-143.2,390.8z M-136.7,392c0.2-0.5,0.4-1,0.4-1.6c0-0.4-0.3-0.7-0.6-0.7
			c-0.6,0-0.9,0.9-1.1,1.4c-0.7,1.6-1.2,3.4-1.7,5c0.6,0.1,1.1,0.2,1.6,0.3C-137.7,395.1-137.1,393.5-136.7,392z M-144.9,403.7
			c0.4,0.1,1,0,1-0.4c0.1-0.4-0.3-0.8-0.4-0.9c-0.4-0.7-0.7-1-1.2-1.5c-0.2-0.2-0.5-0.5-0.8-0.6c-0.5,0-0.9,0.5-1.1,0.8
			c-0.5,0.9,0,2,0.4,2.7c1,1.6,2.5,2.9,5,2.9c2.1,0,3.5-1.1,4.5-2.2c1-1.2,1.6-3,1.5-5.2c0-0.4-0.1-0.9-0.3-1.2
			c-0.4-0.6-1.5-0.9-2.5-1.1c-0.5-0.1-1-0.2-1.6-0.2c-0.7-0.1-2-0.3-2.3,0.1c-0.3,0.4,0,1,0.1,1.2c0.5,0.8,2.1,1,3.5,1
			c0.7,0,1.7-0.2,1.6,0.5c-0.1,0.3-0.8,0.5-1.2,0.6c-0.4,0.2-0.9,0.5-1.1,0.7c-0.5,0.5-1.3,1.3-1.4,2.4c-0.1,1,0.4,1.2,0.3,2.2
			c-1-0.2-1.2-1.3-1.2-2.4c-0.2,0.1-0.6,0.1-0.9,0c0.4,1.4-1.1,2-2.1,1.5c-0.4-0.2-0.8-0.6-1.2-1c-0.3-0.5-0.7-1.1-0.3-1.6
			C-146.1,402.4-145.7,403.4-144.9,403.7z M-145.8,398.3c0,0.5,0.3,1,0.5,1.3c0.5,0.8,0.9,1.4,1.6,2c0.3,0.3,0.7,0.7,1.1,0.7
			c0.2,0,0.5-0.3,0.5-0.5c0.1-0.4-0.2-0.9-0.4-1.3c-0.3-0.8-0.8-1.6-1.2-2.2c-0.3-0.4-0.7-0.9-1.2-0.9
			C-145.2,397.4-145.8,397.8-145.8,398.3z M-141.3,401.1c0.4-0.5,0.9-0.9,1.3-1.2c-0.7,0-1.4-0.2-2-0.3
			C-141.7,400.1-141.5,400.6-141.3,401.1z"/>
	</g>
</g>
<g id="Outline_Color_copy_2_1_">
	<path class="st0" d="M-254.1,383.9c1.6,0,2.8,1.3,2.8,2.8v22.5c0,1.6-1.3,2.8-2.8,2.8h-22.5c-1.6,0-2.8-1.3-2.8-2.8v-22.5
		c0-1.6,1.3-2.8,2.8-2.8H-254.1 M-254.1,383h-22.5c-2.1,0-3.7,1.7-3.7,3.7v22.5c0,2.1,1.7,3.7,3.7,3.7h22.5c2.1,0,3.7-1.7,3.7-3.7
		v-22.5C-250.4,384.7-252,383-254.1,383L-254.1,383z"/>
	<path class="st0" d="M-267.6,406.7h3.6V398h2.4l0.3-3h-2.7l0-1.5c0-0.8,0.1-1.2,1.2-1.2h1.5v-3h-2.4c-2.9,0-3.9,1.5-3.9,3.9v1.8
		h-1.8v3h1.8V406.7z"/>
</g>
<g id="Outline_Color_copy_2_2_">
	<path class="st0" d="M-161.5,383.9c1.6,0,2.8,1.3,2.8,2.8v22.5c0,1.6-1.3,2.8-2.8,2.8H-184c-1.6,0-2.8-1.3-2.8-2.8v-22.5
		c0-1.6,1.3-2.8,2.8-2.8H-161.5 M-161.5,383H-184c-2.1,0-3.7,1.7-3.7,3.7v22.5c0,2.1,1.7,3.7,3.7,3.7h22.5c2.1,0,3.7-1.7,3.7-3.7
		v-22.5C-157.7,384.7-159.4,383-161.5,383L-161.5,383z"/>
	<path class="st0" d="M-163.4,393.9c0,0-0.2-1.4-0.8-2c-0.7-0.8-1.5-0.8-1.9-0.9c-2.7-0.2-6.7-0.2-6.7-0.2h0c0,0-4,0-6.7,0.2
		c-0.4,0-1.2,0.1-1.9,0.9c-0.6,0.6-0.8,2-0.8,2s-0.2,1.6-0.2,3.3v1.5c0,1.6,0.2,3.3,0.2,3.3s0.2,1.4,0.8,2c0.7,0.8,1.7,0.8,2.1,0.9
		c1.5,0.2,6.5,0.2,6.5,0.2s4,0,6.7-0.2c0.4,0,1.2-0.1,1.9-0.9c0.6-0.6,0.8-2,0.8-2s0.2-1.6,0.2-3.3v-1.5
		C-163.2,395.6-163.4,393.9-163.4,393.9z M-175.1,401.6v-7.2l6,3.6L-175.1,401.6z"/>
</g>
<g id="Outline_Color_copy_2_3_">
	<path class="st0" d="M-192.4,383.9c1.6,0,2.8,1.3,2.8,2.8v22.5c0,1.6-1.3,2.8-2.8,2.8h-22.5c-1.6,0-2.8-1.3-2.8-2.8v-22.5
		c0-1.6,1.3-2.8,2.8-2.8H-192.4 M-192.4,383h-22.5c-2.1,0-3.7,1.7-3.7,3.7v22.5c0,2.1,1.7,3.7,3.7,3.7h22.5c2.1,0,3.7-1.7,3.7-3.7
		v-22.5C-188.6,384.7-190.3,383-192.4,383L-192.4,383z"/>
	<path class="st0" d="M-195.9,405.4v-5.8c0-3.1-1.6-4.5-3.8-4.5c-1.8,0-2.6,1-3,1.7v-1.4h-3.3c0,0.9,0,10,0,10h3.3v-5.6
		c0-0.3,0-0.6,0.1-0.8c0.2-0.6,0.8-1.2,1.7-1.2c1.2,0,1.7,0.9,1.7,2.3v5.4L-195.9,405.4L-195.9,405.4z M-209.6,394
		c1.2,0,1.9-0.8,1.9-1.7c0-1-0.7-1.7-1.9-1.7c-1.1,0-1.9,0.7-1.9,1.7C-211.4,393.2-210.7,394-209.6,394
		C-209.6,394-209.6,394-209.6,394z M-207.9,405.4v-10h-3.3v10C-211.2,405.4-207.9,405.4-207.9,405.4z"/>
</g>
<g id="Outline_Color_copy_2_4_">
	<path class="st0" d="M-223.3,383.9c1.6,0,2.8,1.3,2.8,2.8v22.5c0,1.6-1.3,2.8-2.8,2.8h-22.5c-1.6,0-2.8-1.3-2.8-2.8v-22.5
		c0-1.6,1.3-2.8,2.8-2.8H-223.3 M-223.3,383h-22.5c-2.1,0-3.7,1.7-3.7,3.7v22.5c0,2.1,1.7,3.7,3.7,3.7h22.5c2.1,0,3.7-1.7,3.7-3.7
		v-22.5C-219.6,384.7-221.3,383-223.3,383L-223.3,383z"/>
	<path class="st0" d="M-232.4,391c-1.6,0.6-2.5,2-2.4,3.6l0,0.6l-0.6-0.1c-2.3-0.3-4.3-1.3-5.9-2.9l-0.8-0.8l-0.2,0.6
		c-0.4,1.3-0.2,2.8,0.8,3.7c0.5,0.5,0.4,0.6-0.5,0.3c-0.3-0.1-0.6-0.2-0.6-0.1c-0.1,0.1,0.2,1.2,0.4,1.7c0.3,0.6,1,1.2,1.7,1.6
		l0.6,0.3l-0.7,0c-0.7,0-0.7,0-0.6,0.3c0.2,0.8,1.2,1.7,2.3,2.1l0.8,0.3l-0.7,0.4c-1,0.6-2.2,0.9-3.3,0.9c-0.6,0-1,0.1-1,0.1
		c0,0.1,1.5,0.8,2.4,1.1c2.7,0.8,5.8,0.5,8.2-0.9c1.7-1,3.4-3,4.2-4.9c0.4-1,0.8-2.9,0.8-3.8c0-0.6,0-0.7,0.7-1.3
		c0.4-0.4,0.8-0.8,0.9-1c0.1-0.2,0.1-0.2-0.5,0c-1.1,0.4-1.2,0.3-0.7-0.2c0.4-0.4,0.8-1.1,0.8-1.3c0,0-0.2,0-0.4,0.1
		c-0.2,0.1-0.7,0.3-1.1,0.4l-0.7,0.2l-0.6-0.4c-0.3-0.2-0.8-0.5-1.1-0.6C-230.8,390.8-231.8,390.8-232.4,391z"/>
</g>
<g id="g3516" transform="matrix(0.64050449,0,0,0.64031522,0,25.600003)">
	<path id="path3518" class="st0" d="M-173.8,596.1c-0.6-0.4-3-3.3-5.2-6.8c-2.2-3.5-4.5-7.9-4.5-11.6c0-5.9,4.6-10.8,10.3-10.8
		c5.7,0,10.2,4.9,10.3,10.7c0.1,4.1-2.2,8.5-4.5,12c-2.3,3.4-4.7,6-5.3,6.4c0,0-0.2,0.2-0.5,0.2C-173.6,596.3-173.8,596-173.8,596.1
		z M-168.7,588.8c2.2-3.4,4.3-7.5,4.2-11.1c-0.1-5.2-4-9.3-8.8-9.3c-4.8,0-8.8,4.1-8.8,9.3c0,3.2,2,7.3,4.3,10.8
		c1.8,2.8,3.7,5.1,4.6,6C-172.4,593.7-170.5,591.6-168.7,588.8z"/>
	<path id="path3520" class="st0" d="M-196.7,600.8v-38.3c0-2.4,1.9-4.3,4.3-4.3h38.3c2.4,0,4.3,1.9,4.3,4.3v38.3
		c0,2.4-1.9,4.3-4.3,4.3h-38.3C-194.8,605-196.7,603.1-196.7,600.8z M-151.3,600.8v-38.3c0-1.6-1.3-2.8-2.8-2.8h-38.3
		c-1.6,0-2.8,1.3-2.8,2.8v38.3c0,1.6,1.3,2.8,2.8,2.8h38.3C-152.5,603.6-151.3,602.3-151.3,600.8z"/>
	<path id="path3522" class="st0" d="M-179.1,577.2c0-3.2,2.6-5.9,5.8-5.9c3.2,0,5.8,2.6,5.8,5.9c0,3.2-2.6,5.9-5.8,5.9
		C-176.5,583.1-179.1,580.4-179.1,577.2z M-168.9,577.2c0-2.4-2-4.4-4.4-4.4c-2.4,0-4.4,2-4.4,4.4c0,2.4,2,4.4,4.4,4.4
		C-170.8,581.6-168.9,579.6-168.9,577.2z"/>
</g>
<g id="Document" transform="scale(1 -1)">
	<g id="Spread" transform="translate(0 -24)">
		<g id="Icon">
			<path marker-start="none" marker-end="none" class="st0" d="M-94.6-386.2v24.4c0,1.5,1.2,2.7,2.7,2.7h24.4c1.5,0,2.7-1.2,2.7-2.7
				v-24.4c0-1.5-1.2-2.7-2.7-2.7h-24.4C-93.4-388.9-94.6-387.7-94.6-386.2z M-65.7-386.2v24.4c0,1-0.8,1.8-1.8,1.8h-24.4
				c-1,0-1.8-0.8-1.8-1.8v-24.4c0-1,0.8-1.8,1.8-1.8h24.4C-66.5-388-65.7-387.2-65.7-386.2z"/>
			<path marker-start="none" marker-end="none" class="st0" d="M-90.9-381v14c0,0.3,0.2,0.5,0.5,0.5H-69c0.3,0,0.5-0.2,0.5-0.5v-14
				c0-0.3-0.2-0.5-0.5-0.5h-21.4C-90.7-381.5-90.9-381.2-90.9-381z M-69.5-380.5v13.1H-90v-13.1H-69.5z"/>
			<path marker-start="none" marker-end="none" class="st0" d="M-80-376.7l-10.7,9.3c-0.2,0.2-0.2,0.5,0,0.7c0.2,0.2,0.5,0.2,0.7,0
				l10.4-9.1l10.4,9.1c0.2,0.2,0.5,0.1,0.7,0c0.2-0.2,0.1-0.5,0-0.7l-10.7-9.3C-79.6-376.8-79.9-376.8-80-376.7z"/>
			<path marker-start="none" marker-end="none" class="st0" d="M-90.2-380.7c-0.1,0.1-0.1,0.2,0,0.3l7.5,6.6c0.1,0.1,0.2,0.1,0.3,0
				c0.1-0.1,0.1-0.2,0-0.3l-7.5-6.6C-89.9-380.8-90.1-380.8-90.2-380.7z"/>
			<path marker-start="none" marker-end="none" class="st0" d="M-69.4-380.9l-7.5,6.6c-0.1,0.1-0.1,0.2,0,0.3c0.1,0.1,0.2,0.1,0.3,0
				l7.5-6.6c0.1-0.1,0.1-0.2,0-0.3C-69.1-381-69.3-381-69.4-380.9z"/>
		</g>
	</g>
</g>
<g id="g3536" transform="matrix(0.64050449,0,0,0.64031522,0,25.600003)">
	<path id="path3538" class="st0" d="M-86.1,597.3c-1.3-0.6-2.8-1.7-3.4-3c-0.6-1.4,0-2.8,0.7-3.9c0.7-1.1,1.7-2.2,2.7-2.9
		c1-0.7,2.2-1.2,3.3-1c1.1,0.2,1.9,1.1,2.3,1.5c0.2,0.3,0.4,0.4,0.5,0.5l0.2,0.2l0.2-0.1c0.3-0.2,0.8-0.5,1.8-1.2
		c1.3-0.9,3.3-2.3,4.9-4.1c1.7-1.8,3-4,3.5-5.3c0.2-0.6,0.3-0.8,0.2-1c0,0-0.1-0.1-0.2-0.1c-0.5-0.3-1.6-0.7-2.2-1.2
		c-0.8-0.7-0.9-1.5-0.9-2.2c0-0.7,0.2-1.4,0.6-2.1c0.3-0.8,0.8-1.6,1.4-2.5c0.6-0.8,1.3-1.7,1.9-2.2c0.6-0.5,1-0.7,1.5-0.9
		c0.5-0.2,1.3-0.4,2.4,0.1c1,0.4,2.4,1.4,3.2,2.5c0.8,1.1,0.9,2.3,0.9,3.4c0,1.1-0.2,2.1-1.4,4.5c-1.1,2.4-3.3,6.4-6.3,9.9
		c-3,3.6-6.9,6.7-9.3,8.6c-2.4,1.8-3.5,2.5-4.7,2.8C-83.4,597.9-84.7,597.9-86.1,597.3z M-82.6,596.2c0.9-0.2,1.8-0.7,4.2-2.6
		c2.4-1.8,6.2-4.9,9.1-8.4c2.9-3.4,5-7.3,6.1-9.6c1.1-2.3,1.2-3.1,1.2-3.9c0-0.9-0.1-1.7-0.7-2.5c-0.6-0.8-1.8-1.7-2.6-2
		c-0.7-0.3-1-0.2-1.3-0.1c-0.3,0.1-0.6,0.2-1,0.6c-0.5,0.4-1.1,1.2-1.7,2c-0.6,0.8-1,1.5-1.3,2.2c-0.3,0.7-0.4,1.2-0.4,1.6
		c0,0.5,0.1,0.8,0.4,1.1c0.4,0.4,1.3,0.7,2,1c0.2,0.1,0.6,0.3,0.8,0.7l0.1,0.1c0.3,0.6,0.1,1.3-0.3,2.1c-0.6,1.4-2,3.7-3.8,5.7
		c-1.8,1.9-3.9,3.4-5.2,4.3c-1.2,0.9-1.9,1.3-2.3,1.5c-0.1,0-0.2,0.1-0.4,0.1c-0.4,0-0.7-0.1-0.9-0.2l-0.1-0.1
		c-0.2-0.2-0.5-0.5-0.8-0.9c-0.4-0.5-0.9-0.9-1.4-1c-0.5-0.1-1.3,0.1-2.2,0.8c-0.9,0.6-1.7,1.5-2.3,2.5c-0.6,1-0.9,1.8-0.6,2.5
		c0.3,0.8,1.5,1.7,2.6,2.2C-84.5,596.4-83.5,596.4-82.6,596.2z"/>
	<path id="path3540" class="st0" d="M-98.5,600.7v-38.2c0-2.4,1.9-4.3,4.3-4.3h38.2c2.4,0,4.3,1.9,4.3,4.3v38.2
		c0,2.4-1.9,4.3-4.3,4.3h-38.2C-96.6,605-98.5,603.1-98.5,600.7z M-53.3,600.7v-38.2c0-1.5-1.3-2.8-2.8-2.8h-38.2
		c-1.5,0-2.8,1.3-2.8,2.8v38.2c0,1.5,1.3,2.8,2.8,2.8h38.2C-54.5,603.5-53.3,602.3-53.3,600.7z"/>
</g>
</svg>
